# xmcd
#
# Track frame offsets:
#   150
#   18758
#   42342
#   57265
#   80704
#   95075
#   118307
#
# Disc length: 1867 seconds
#
# Revision: 0
# Processed by: cddbd v1.5.2PL0 Copyright (c) Steve Scherf et al.
# Submitted via: GXTranscoder 2.0.1939
#
DISCID=5a074907
DTITLE=Dirty Rhythm - Dirty Rhythm
DYEAR=1995
DGENRE=Blues
TTITLE0=Here I am
TTITLE1=Running on faith
TTITLE2=Barefootin
TTITLE3=Love in vain
TTITLE4=Taxi driver
TTITLE5=Speechless
TTITLE6=More than one way home
EXTD=
EXTT0=
EXTT1=
EXTT2=
EXTT3=
EXTT4=
EXTT5=
EXTT6=
PLAYORDER=
